<svg xmlns="http://www.w3.org/2000/svg" viewBox="0 0 427.3 618" xmlns:v="https://vecta.io/nano"><path d="M-5.7 575.9c2.8-4.5 7.9-4.4 12.1-5.7 2.5-.8 5.6-2.2 8.9-.9-.4 3.5-4.3 6.2-2.4 10.7 3.2-4 5.1-8.1 6-13 .9-4.3 7.5-4.8 7.5-10.3 2.2 1.6-1.6 3.5.8 3.9 1.4.2 4-1.2 4.1-3.2 0-2.7 1.6-3.5 3.4-4.2 5.4-2 9.5-5.6 12.6-10.3 1.8.3 1.3 2.5 1 2.6-4.8 2.6-2.9 10.1-8.8 11.8-.3.1-.7.5-.6.7 2.2 7.5-5.5 10.1-7.9 15.4-1.5 3.4-3.4 6-1.9 9.9.8 2.1.7 4.6-.7 6.6-1.5 2.1-1 3.9.7 5.6.3-2.1 1.7-3.8 1.3-6-1.3-8.1 3.1-13.8 7.5-19.8 3.3-4.5 7.9-8.3 9.8-13.2 1.6-4.3 3.6-7.3 7.2-9.7.3-.2.4-.9.2-1.2-1.2-2.2-.9-5.8 1.1-6.9 5-2.9 10-5.9 16.1-5.7 5.4.2 9.9 4.3 15.5 3.3 4.2-.7 8.6 2.5 12.6-.9.5-.4 1.6-.3 2.4-.3 8.2.2 16.4-.2 24.6-1 10.5-1.1 20.2 2.6 30.3 4.3.9.1 1.8.9 2.8.7 9.1-1.8 15.9 3.4 22.8 7.8 6.8 4.3 13.7 8.6 21.3 10.9 2.9.9 2.1 5.2 5.6 4.5l-.2-.2c2.8 5 7.5 8 12.1 10.8.9.5 2.4 5.5 5.1 1.4.2.2.5.3.7.5 2.7 5.7 4.5 4.3 8.7 8.8 4.2 4.6 11.1 2.5 13.8 8.1.2.3 1.2.5 1.8.4 4.9-1.4 6.9-1.5 10.3 1.1 1.6 1.1 2.5.2 2.4-.6-.6-2.9.6-1 1.4-.7 7.6 2.7 15.2 6.1 23.4 5.4 5.7-.5 11.7 1.6 17.3-2.7 2.8-2.1 7.7-1.6 11.4-3.2 1.6-.7 4.2.6 3.7-2.9-.2-.9.4-.7 1.2-.6 5.5.8 10.8.5 14.9-3.9 1.4-1.5 3.2-1 4.6-.6 5.4 1.3 6.7-2.1 7.2-6.1.2-1.7 1.9-2.7 2.2-4.4-.8 4.4-1.9 8.8-2.4 13.3-1.2 10.9-5.1 21.3-6.6 32.1l-344.4.1c-3.9 0-4.6-1-4.5-4.7.2-12.8 0-25.3 0-37.8zm355.8-464.8c1.4 3.5 2.7 7.2 7.2 7.9 2.1.4 2 .4.4 2.3-.8 1-1.2 2.2.3 2.6 1.9.6 1 3.9 5 2.7-7.3 4.4-7.5 5.7-1.8 9.3 3 2 5 5.1 8.1 6.8.7.4 1.6 1.2 1.6 1.8.1 7.6 7.1 12.2 8.6 19.2.3 1.3 1.4 2.6 2.5 3.5 3.3 2.7 5.4 5.8 3.9 10.1 1.3.6 2.6-3 3.4 1.5 1 5.5.5 11.6 3.2 16.5 4.7 8.7 4.6 18.6 7.9 27.6.5 1.4-.9 4.1-3.3 5-1 .4-2 1.1-3 1.6-5.5 2.2-6.2 6.2-4.9 11.5 1.7 7 2.2 14.2 2 22.1l-3.6-7.3c-.7.4-1.1.7-1.1.7 1.7 5.6-.1 11.7 2.2 17.2.9 2 0 2.4-1.1 3.8-1.9 2.3-2.1-.6-3.2-.6-2.5-.1-1.9-3.6-4.4-4.1-1.4-.3-1.7-5.3-4.4-.9 0 .1-1.2-.3-1.6-.7-7-6.7-14.4-5.4-20.9 0-5.8 4.8-12.3 8.5-17.9 13.4-5.3 4.6-5.5 14.6-3.2 23.1 3.9 14.4 10 28.2 10.4 43.6.2 10-4.1 17.8-10 25-9.1 11.1-22 16.3-34.7 21.6-14.8 6.2-30.4 8-46.4 7.2-3.1-.2-5.1-3-8.5-2 .8-2 2.9-.3 3.7-2.5-8.7-4-16.1-10-23.9-15.5-4-2.9-6.8-7-11.1-9.6-4.7-2.7-15.4-.7-17.9 4-1.4 2.6-.7 5.8.4 8.3 2.5 5.7 2.4 12.2 6.2 17.7 2.9 4.1 1.3 9.7 1.1 14.5-.3 6.8-3.5 12.5-7.3 18-3.6 5.2-8.4 8.8-13.6 11.6-9.2 5.1-18.7 9.6-29.1 12.4-18 4.7-33.6.5-47.8-10.7-8.8-7-16.8-15-24.9-22.7-5.1-4.9-11.8-8.1-15.1-15-1.4-2.8-.9-4.7 1.1-5.6 4.1-1.7 7-5 10.8-7.5-1.6.2-3.1.2-4.7.6-1 .3-1.9 2.9-2.9 1-.6-1-2-2.7-.5-4.8 3.1-4.5 5.4-9.5 8.4-14.1 2.3-3.6 3.2-7 1-11.1-2.1-4.1-1.2-9.1-3.9-13.4-1.6-2.4-2.3-5.4-4.4-7.8-3.2-3.8-5.6-8.1-8-12.5-1.2-2.1-3.9-3-5.4-5.4-3.4-5.4-4.3-11.8-7.8-17-.8-1.1-.5-2.2-.7-3.3-.2-1 2.6-4.9-2-2.1-1.2.7-7.2-7-7.3-9-.1-3.2-.6-3.6-4.1-2.9-1.9.4-6.4-4.7-6.5-7.7-.2-7.3-1-14.5-3-21.5-.4-1.6.2-3.2.8-4.7.5-1.2.3-2.6-1.1-3.5-2.2-1.4-1.5 2.3-3.2 1.7l-2.5 6.6c-1.6-5.5-.6-11 .3-16.1.9-5.2.7-10.3 1.6-15.4.8-4.8.6-9.5 3.8-13.8 3-4-.3-8.6-1.2-12.8-.6-2.7-1.5-5.1-.5-7.7 2-4.8.1-9.8 1-14.6 1-5 1.2-10.4 5.4-14.2 1-.9.9-2.3-.1-3.1-2-1.4-.9-2.9-.3-4.2.9-2.2.9-3.9-1.7-4.6-1.2-.3-1.5-.7-1-2 .9-2.2 1.3-4.5 2.6-6.7 0 1.3.1 2.6 0 3.9-.2 2 1.7 2.3 2.5 2.2 1.9-.1.6-1.5.6-2.5.2-7.6 2.7-14.5 7.2-20.5 1.6-2.1 1.7-6.1 6.2-5.8 1.2.1.6-3.2 1.1-4.9 2.1-7.6 6.6-13.6 11.6-19.4L69 93.2c.7-.8 2-3.3 2.7.2.2 1.1 1.4.7 1.9 0 4-5.3 8.3-10.5 11.7-16.1 2.4-4.1 7.1-7.8 11.2-10 6.8-3.6 14.1-7 18.7-13.6 4.5-6.5 10.7-10.8 17.8-13.1 3.6-1.2 2.9-5 6.2-5.8 7.4-2 13.4-8.1 21.8-7.7 1.9.1 3.9.6 5.5-1.3 1-1.2 3-1.1 3.6-.3 2.5 3.3 5.5 2.7 8.7 1.9l-.2-.2c2.2 2.2 5.1 0 7.4 1.2-.6 1.5-2.1.2-3.4 1.5 7.6.8 14.5 3 21.8 3.1 1.5 0 5.4 1.3 2.6-3-.8-1.3.8-1.9 2-1.9 5.8 0 11.4-2.5 17.4-1.9-7.9-3.7-16.7 1.4-24.9-3 9.3-.3 18-3.5 27-.2 1.6.6 2.2-.5.9-1.8-.5-.5-1-.7-.9-1.8 3.6.6 6.6 1.9 9.8 3.8 4.8 2.8 10.6 4.1 16 5.9 3 1 5 3 7.1 5.2 2.8 3 4 8.2 8.2 9.2 5.1 1.2 9.8 3.7 15.2 3.9 1.6 0 2.8 3.1 5.2 3.4 1.3-1.2-1.5-2.1-.3-3.4.3.1.6.2.7.4 1.2 2.3 2.8 3.3 5.7 3.5 6.4.5 11.3 5.1 16.8 8 5.2 2.7 9.7 7 16.1 6.9.4 0 1.1.2 1.2.5s-.2 1.2-.3 1.2c-4 0-.5 2.2-.4 2.3 2.2 3.2 3.7 7 9.1 6 1.6-.3 3.3 2.9 3.4 5.2.1 2.9-2.1 1.8-3.7 1.7-.5-.1-2.3 5.1-1.9 5.5 5.7 5.9 8.3 14.4 15.3 19.3 1 .7 1.2 1.8.1 2.8-.1.1-.3 0-.4-.1s-.3-.2-.4-.3c-.5-.3-.9-.6-1.4-.9-.6.8-.5 1.4.5 1.7zm-178.9 16c.7 1.4 1.7 1.1 2.8.5-.7-.4-1.3-.8-2-1.2-2.4-2.4-5.6-1.5-8.4-2.1 2.3 1.5 4.7 2.7 7.6 2.8zm-74.4 68.2c-.6-1-1.3-1.3-2.1-.2-.5.6-.7 1.3-.1 1.7.3.2 1.1-.4 1.6-.6-.1 3.7 2.2 3.9 5.6 3.6-1.7-2.1-3.1-3.6-5-4.5zm8 58.9c-.5-.3-.9-.6-1.4-.9-.4.8-.3 1.5.7 1.8.5 2.9 2 5 5.5 6.8-1.1-3.8-3.4-5.4-4.8-7.7zm5.6 7.8c-1.6.2-2 1.9-3.2 2.6-.6.4-2.8-1.2-1.6 1.2.5 1 .8 2.5 2.6 2.5s.8-1.3 1.1-2c.4-1 .7-2.1 1.1-3.2l.8-.8c-.3-.1-.6-.2-.8-.3zM271.1 79.2c1.1 1.7 2.5.8 4.4.5-1.5-.5-2.5-.9-3.6-1.2-3.5-2.3-7.4-3.3-11.3-4.5-.2.4-.3.8-.5 1.2l11 4zm-68.8 151.7c.1-1.9-1-2.1-2.5-1.9-.4.1-1 0-.9.7.2 1.6 1.9.9 2.5 1.8 4 3.2 8.1 6.2 14.8 4.8-5-3.9-7.6-8.7-11.6-12.3-1.9 2.5 1.5 3.4 1.4 6-2.3-2.7-2.5.4-3.7.9zm-65.6-9.1l-3.3-2.1c-.7-.4-1-2-2.2-1.1-1.7 1.3.1 1.8.7 2.5l7.2 9.2c.4.5 1.5.8.5 1.9s-1.3.1-1.9-.3c-.6-.5-1.2-1.1-1.8-1.7-1.3-.8-1.1-3.1-3.5-3.3.3 2 .1 4 2.8 4.2-.6 2.2-1.1 4.1 1.3 5.8 1.6 1.2 2.6 3.3 3.7 5 3 4.6 6.3 9.5 10.1 12.6l13.3 11.2c4.8 3.9 9.4 8.3 15.6 10.2 1.1.3 2.1.9 1.6 3.1-1.2-1.9-3.2-.4-4.4-1.5-4-3.6-10.3-1.4-13.9-5.8-.7-.9-1.4 0-2.1 0-4.2 0-8.6.3-12.2-2.3-1.5-1.1-3.1-1.7-4.5-2.7-7.9-5.7-17.8-8.5-24.3-16.3l.9-.6c.8-.2 2.1 1 2.3-.7.2-2.1-2.3-3.4-3-3-3.6 1.5-4.4-.9-5.8-3.1-.8-1.3-1.9-2.8-3.7-3.2-.8-.2-1.5-1.7-2.5-.6-.7.8-.2 1.8.2 2.7 2.5 5.1 4.9 10.2 10.2 13.2 1 .6 2.8 1.4 1.9 3.8-3.2-1.5-5.8-4.3-11-4.3 6 5.3 5.4 12 7.3 17.8.3.8.4 2.5-1 2.2-3.2-.8-2.1.2-.9 1.7 1.7 2.2 4.8 3.4 5 7.3-4.5-2.6-7.7-5.7-11.1-10.3.5 4.2 1.9 6.6 3.8 8.7s3.3 4.8 6.1 6.1c2.6 1.2 4.4 3.8 7.7 3.7 2.6-.1 5.5-.9 8.4 2.2-4-1-6.9.6-10 .6-.7-1.4-1.7-1.1-2.8-.5.7.4 1.3.8 2 1.2 2.8 4.1 8 5.7 11.7 10.7-5-2.2-8.4-4.3-11.3-7.1-1.8-1.4-3.4-3.2-5.4-4.1-1.5-.7-3-2.9-5-1.1-2 1.9 2.3 2 1.2 3.8a1.38 1.38 0 0 1-.4.3c-4.7-3-9.7-4.9-15.1-6.4-4.4-1.3-10.1-.7-13-5.8l15.5 4.3c-7.7-7.5-16.8-12.3-25.4-18.3 2.1 4.6 7.6 7.3 7 13.2-5.3-1.9-10-4.7-14.5-8.1-.6-.5-1.1-1.4-2.1-.8-.9.5-.8 7.1 0 7.9 2.3 2.6 6.3 3.5 8.1 8.4-2.5-1.9-4.4 2.2-6.1-.8-1.1-2-2.9-2.2-4.5-3.2-.6-.4-.9-2-2.2-.8-1.1 1.1-1.2 2.4-.1 3.5 4.9 4.6 9.6 9.7 15.9 12.5-1 1-3.3-.9-3.6 1.5-.3 2.7 1.9 1.4 3.1 1.9s2.1 1.4 2.7 2.9c-1-.1-1.8 0-2.5-.3-3.9-1.4-7.7-3-11.7-4.4-1.2-.4-2.4-1-2.4 1.4 0 6.7 1 13.2 2.8 19.7 4.7 17.1 9.8 34.1 16.4 50.6 2.2 5.3 4.4 10.9 3.5 16.9-1.2.1-3 .5-2.4 1.7.5 1 2.2.4 3-.9 2.6-1.2 4.2-1.8 1.8-5.5-3.5-5.4.1-11.3 1.1-16.9 1.5 1.1-.2 3.1 1.2 4.4 2-1.8 1.6-3.8.8-5.8-.2-.6-1.7-1.3-.7-1.7 4.1-1.8 5.2-6.4 8.8-9 3.2-2.3 6.6-4.1 9.9-6.1 2.4-1.5 7.1 1.1 7.5-4 0-.2.8-.6 1.2-.6 8.8-.3 17 3.6 25.7 4 .1 0 .2.3.4.3 1.6.1 2 1.2 1.5 2.4-.4 1.2-1.6.9-2.5.5-1.4-.7-2.8-1.6-4.4-1.8-1.2-.2-2.1-1.6-3.4 0-1.3 1.8.3 2.4 1.2 3.2 1.4 1.3 2 3.1.9 4.4-1 1.1-2.6 2.1-4.7 1.1-2.4-1.2-5.2-.9-7.8-.1-1.2.4-3.4 1.4-1.8 3 2.9 3 .1 2.7-1.4 2.5-10-1.4-14.8 5.9-20.4 12-.9 1-.8 2.4-.4 3.3.8 1.9 1.9.1 2.8-.2l11.3-4c13.7-5 27.1-10.7 41.7-13.1 7.9-1.3 16.2-1 23.6-4.3-.2-1.4-2.6.3-2.3-1.7.2-1.5 1.6-.9 2.4-.9 6 .3 10.7-3.2 15.7-5.6 7.1-3.5 11.2-10.6 17.6-15 6.3-4.3 11.4-10.6 18-14.5 9-5.3 18.1-10.6 27.6-15.2 5.4-2.6 9.8-7.3 15.2-9.4 9.7-3.8 19.1-8.2 28.6-12.3 2.3-1 3.8-2 2.7-5.1 2.3 2.9 5.6 2.9 7.4 1.7 4.2-2.9 9.4-5 12.8-8.2l12.9-12.6c4.4-4.2 8.9-8.3 12.6-13.1.9-1.1 2.2-2.1 1.5-4-1.2-3.3-9.5-10.6-12.9-10.6-2.2 0-3.5-1-5.2-2.3-3.8-2.9-6.8-7.1-12.5-7-1.7 0-3.6-1.4-4.6-3.4.9-.2 1.7-.5 2.7-.7-1.8-2.8-5.1-6.8-6.1-6.8-4.7.3-2.7-3.1-3.9-4.7-3.1-4.2-3.3-11.6-11.1-11.1-2.3.1-1.5-3.2-3.7-3.2-.6 0 1-2.3-.9-1.8-1.1.3-2.3 1.5-1.1 3.1 3 3.9 5.6 7.9 6.7 13 1.7 7.5 10.5 11.4 10.7 19.8 0 .1.2.2.4.3 3.1 2.5 5.9 5.2 8 8.6.4.7 2.2.7 1.5 2.1-.6 1.2-2 1.4-3 .6-2.6-2-6.2-2-8.5-5-1-1.3-3.2-4-6.4-2.1 2.9 3.9 7.4 6.4 8.8 11.2-6.8 1.4-7-7.2-12.1-9-.5 2.4 4.8 4.7-.8 5.7-.5.1-1.2 3.2.9 4.5 1.2.7 2.3 1.7 3.4 2.5-6.1 2.1-10.5-2.2-15.6-3.7-.3-1-.9-1.1-1.7-.7.3.4.6.9.9 1.3 1 1.2 2.7 2.2 1.8 3.1-5.6 2.1-8.8-2.2-12.9-4.3-.2 2.9 1.8 4.4 2.5 6.2-3.1 2.3-5.2-2.2-8.1-.8-.2.1-.7-1.3.4-1.8 2-.8.1-1.4-.2-1.8-.6-.7-1-.4-1.7.4-2.9 3.4-4.1 3.4-5.8-.5-2.5-5.9-8-8.7-12.3-12.8-.6-.6-1-1.8-2.2-.5-.9 1 0 1.7.1 2.5.3 2.5 3.5 2.2 4.1 4.4-1.4.4-2.3-.1-3.3-.7-4.6-2.7-7.4-7.3-11.3-10.7-1.4-1.2-2.2-5.5-5-.8.2-2.5-2-3.4-2.9-5-.6-1.2-1-2.3-2.3-.9-.7.7-2.8 1.3-1 2.9 1.1 1 1.6 2.3.4 3.4-1.9 1.6-1.9 1.4-.1 3.2 2.7 2.6 6.2 4.8 7.9 8 1.7 3.1 4 4.9 6.4 7.1.9.9 3.1.8 2.8 2.4-.3 1.1-1.8 2-2.8 3-1.1-1.7-3.7-.2-4.5-1.8-1.7-3.5-5.6-4.5-7.7-7.5 1.6 5.5 5.4 9.7 8.5 14.4-9.2-3.7-15-12-23.7-16.4-.5 2 1.8 3 1.1 4.9-2.3-1.4-4.6-2.6-6.7-4-1-.7-1.8-1.4-3.1-.9l1.2 3.3-.9.6c-.7-.2-1.3-.2-2-1-4.1-4.9-8-10.1-16-11.9l12.6 13.2c-.3.3-.5.6-.8 1-4.6-2.8-9.7-4.8-13.8-8.4h3.6c-1.7-1.2-2.4-2.2-3.6-3-5-3.4-9.6-7.3-14.3-11-4.8-3.7-4.5-4.2-6.7 1.2-1.5.4-5.2-1.4-3.7 2.2 1.5 3.3 2.1 7.1 3.9 10 7.1 11.1 16 20.9 25.3 30.2-5.5.6-14.9-6.9-24.5-19.6l-.1.1c2.3 0 2.6-.7 1.2-2.6-6.4-8.6-12-17.9-19.6-25.5-.4-.4 0-1.6-1.4-1.5-2.9.2-5.9-1.8-7.5-4.2-.5-.7-.3-2.9-2-2-1.1.6-1.7 2-.7 3.6.7 1.2.8 2.7 1.2 4.1.2.6 0 .9-.2 1.2zM337.4 354c-.3-3-.2-5-.7-6.9-2.6-11.2-5.6-21.9-13.3-31.3-6.9-8.4-15.4-13.2-25.7-10.7-13.4 3.3-26.3 8.1-38.6 14.4-11.7 5.9-22.8 12.9-33 21.1-11.7 9.4-12.8 20.4-5.5 30.8 3 4.3 6.9 8 11.5 11 5.7 3.6 10.6 8.7 16.1 12.1 13.9 8.4 28.9 5.7 43.3.2 10.7-4.2 20.7-9.7 30-16.7 8.6-6.4 14.7-13.9 15.9-24zm-143.2 63.2c.6-6.8-2-13.2-4.7-19.3-3.2-7-6.9-14-14.2-18-8.9-4.9-17.8-4.2-27.3-2.1-20.3 4.6-39.3 12.1-56 24.3-9 6.6-11.7 11-5.7 22.5 4.9 9.4 11.9 17 21.2 22.4 4.1 2.4 7 6.4 11.1 9 8.4 5.4 17.3 4.6 26.4 2.9 17.2-3.4 31.9-11.1 43.2-24.9 4-4.8 6.4-10.1 6-16.8zm-9.5-345.5c-9.7-4.8-19.9-1.7-29.9-2.4 9.6 4.8 20.1-.6 29.9 2.4zm29.3 9.9c-1-1 .7-3-1-3.4-5-1.3-9.6-4.9-15.2-3.2-.5.1-1-1.2-1.4-.1-.2.5-.2 1.6.2 1.8 1.1.8 2.4 2.1 3.6 2 4.8-.5 9.3 1 13.8 2.9zm12.3-41.8c4.1 3.5 9.4 3.9 14.3 5.1 1.2.3 3.3-.5 3.3-2 .1-1.8-1.7-2-3.3-1.9-4.7.2-9.5.3-14.3-1.2zM238 69.7c-4.2-4.5-11.7-6.9-17.8-6.2l17.8 6.2zM192.1 55c-4-.5-7.3-5.3-12.4-1.7 4.4 1.3 8 3.6 12.4 1.7zM21.2 260.5c2-2.6 2.8-4.9 1.6-7.5-.2-.5-.8-1.1-1.5-.4-2.6 2.3-1.7 4.8-.1 7.9zM313.3 82c-2.6-3.4-5.4-4.5-9.1-3.7 2.2 3.3 5.3 3.7 9.1 3.7zM122.9 237.7c-1.6-3.3-2.8-6.9-7.4-7.8 2.2 3.3 4.4 5.9 7.4 7.8zm44.9-202.9c4.1-1.3 8 2.2 12.1.5-4-1.7-8-1.5-12.1-.5zM105 363.2c-4.4-.1-5.3.4-6.4 4 2.3-1.4 5.3-.9 6.4-4zm49.9-94.8c-1.5-2.2-3.8-3.1-5.8-4.3-.1 0-.9.7-.8.9 1.1 2.4 3.5 3 5.6 4.1.1 0 .3-.2 1-.7zM293 195.9c.1-2 .9-3.6-.4-4.7-.7-.5-1.5.3-1.9 1-1.3 2.1.7 2.3 2.3 3.7zm-190.3 83.6c-2.3-.6-1.7-3.4-4-3.5-.9-.1-.8.6-.6 1.3.5 2.1 1.5 3.2 4.6 2.2zm-19.4-91.2c1.2 1.4 1.8 3.2 4.3 2.5-.6-1.9-1.5-3.1-4.3-2.5zm26 81.3c-.1 1.8 1.5 1.3 2.1 1.9.7.8.8-.3.8-.5-.2-1.3-1.1-2-2.3-2.2-.2 0-.5.6-.6.8zM94.2 273c-.9-.9-1.7-1.9-3-1.4-.2.1-.5.6-.5.7.9 1.3 2.3.6 3.5.7zm-19.9-4.5c-.1-.9-.3-1.5-1.1-1.4-.3.1-.7.6-.8 1-.1.9.6 1.1 1.2 1.2.2 0 .5-.6.7-.8zm48.2-17.6c1.5.9 2.4 1.4 3.3 2 .1-.3.5-.6.4-.8-.6-1.6-1.8-1.3-3.7-1.2zm-33.7-59.8c-.3.2-1 0-.8.8.2.7.6 1.2 1.3 1.1.6-.1 1.4-.1 1-1-.2-.7-.7-1-1.5-.9zm-11 208.3c-.7-.7-1.5-.6-2.2-.2-.1.1-.2.7-.1.7.9.5 1.7.3 2.3-.5zm19.3-124.6c-.8-.2-1.4-1.7-2.9-.5.8.8 1.7 1 2.9.5zm168.7-31.6c-.2.4-.6.7-.5.9.1.3.5.6.8.9.2-.2.5-.5.4-.6-.2-.5-.4-.8-.7-1.2zm35.4-11.2c-.3.3-.6.5-.8.7.4.2.8.5 1.3.7.1 0 .4-.4.6-.6-.5-.3-.8-.6-1.1-.8zm-103.3-4.8c-.2.3-.6.6-.6.8.1.4.4.8.6 1.1.2-.2.6-.5.6-.6-.1-.5-.4-.9-.6-1.3zM91.2 194.5c.4.2.9.4 1.3.4.1 0 .3-.4.4-.7-.4-.2-.8-.5-1.3-.7 0 .4-.2.6-.4 1zm15.7 77.7c-.2.4-.6.7-.5.9.1.3.5.6.8.9.2-.2.5-.5.4-.6-.2-.5-.5-.8-.7-1.2zm1.6-18.4c.5.2.9.4 1.3.6.1-.3.3-.8.3-.8-.4-.2-.8-.4-1.2-.5 0 0-.2.4-.4.7zm149.3 226.9c2.9-5.2 6-9.7 8.2-14.7 2.5-5.6 7.2-8.9 12-10.8 18.1-7.4 16.7-26 6.5-36.3-1-1-2.3-1.9-3.8-3.1 4-1.9 7.1-.1 10 .4 7.1 1.2 14.3 2.6 21.1 5 10.5 3.8 21.3 4.7 32.2 5.9 5.4.6 9.7 3.6 13.1 7.6 1.9 2.3.1 4.8-1 6.5-1.6 2.4-2.7-.5-3.7-1.4-2-1.7-4.9-2-6.6-4.3-.9-1.3-1.9-.1-2.3.6-2.3 3.9-4.4 3.7-7 .1-.5-.7-2.1-1.2-3.5-1.3-3.1-.2-3.3-.4-3.4-4-.1-1.7-1.1-.8-1.5-.8-2.6-.1-5.2 0-7.7.9-5 1.7-8.9-1.8-13.3-2.9-6.5-1.7-12.7 2.8-11.6 9.2.6 3.9-1 6.5-2.5 9.2-1.1 2.1-2.9 3.8-3.7 6.1-2.2 6.3-7.9 10.4-10.6 16-4 8.4-13.2 7.3-18.6 12.4-.4.1-1.1-.2-2.3-.3zm-15.4 31.5c2.1 2.9 5.2 4.6 8 6.7 1.4 1.1 1.6.9 4-.6.8-.5 1.1.1 1.8.6 3.7 2.7 7.4 5.2 12.5 3.1 2-.8 1.1-1.9 1.3-3 .2-.3.4-.6.7-.8 3.1 1.6 5.7 4.5 9.7 3.8.9-.2 1.6.1 1.7 1.2.1 1.3-.5 1.8-1.7 1.7-10-.1-19 5.4-29.2 5.4-2.2 0-3.8-.8-5-1.5-6.4-3.8-13.8-4.1-20.5-6.6-3.4-1.3-6.8-2.8-10.1-4.3-1.8-.8-3.6-2-5.4-1.8-4.6.4-7.7-2-11.8-5 4.7.6 8.5 1 12 1.1 6.5.2 13.1 1.7 19.8.3 3.9-.8 8.1-2.4 12.2-.2v-.1zm106.7-58.6c.6 5.1-3.6 7.6-6 10.4-3.6 4.2-6.2 8.8-9.1 13.4-3.7 5.8-8.6 10.7-12.9 16-.6.8-1.7 1.4-1.9 2.2-.3 1.3-.3 3-1.8 2.9-1.8-.2-1.8-2.6-1.7-3.7.6-6.1-1.9-10.5-6.6-13.9-2-1.4-.5-2.1.4-2.8 9.5-8.1 20-14.9 28.8-23.9 1.8-1.8 4.9-2.1 5.5-5.4.2-1.1 1.8-1.3 3-.6 2.2 1.4 2.7 3.3 2.3 5.4zm-32.9 26.3c0 5.2 1.2 8 3.4 8.1 1.9.1 6.5-4.7 6.6-6.8.1-2.5-4.4-8.4-6.3-7.8-3 1-4.4 3.5-3.7 6.5zm-125.9-18.5c2.7 6.8 2 12.2-1.6 18-1.7 2.7-1.1 7-1.5 10.5-.5 3.6 1.3 7.6-1.8 10.9-.7.7-.7 3.1 0 3.8 3.9 4.6 2.2 9.2.3 13.9-2.5-1.9-5.8-2.5-8.9-3.5-4.4-1.3-7.8-8.1-5-11.5 1.5-1.9 1.3-3.4 1.4-5.1.2-3.2.8-6 3.4-8.3 1.6-1.4 2.3-3.3 2.8-5.5 1.1-5.2 3.3-9.9 6.1-14.4.8-1.3 2.3-2.4 1.1-4.7-1.2-2.1.2-2 1.6-.9.5-1 1.2-1.8 2.1-3.2zm225.5-192.9l-10.9-22.3c-1.7-3.5 3-11.6 6.8-12.2 2.2-.4 4 .4 5.1 2.3 3.7 7 4.8 14.5 2.2 22.1-1.2 3.1-.2 6.8-3.2 10.1zM242.6 512.3c-1.1-3.2 1.9-3.2 3.3-3.3 8.2-.4 15.4-4.7 23.5-5.5 3.2-.3 5.9-4 9.2-5.3 5.5-2.2 9.7-6.8 15.4-8.6 2.4-.7 4.8-2.3 6.7 1 .6 1.2.9 2.1.1 3.2s-1.6 1.1-2.9.3c-3.4-2.1-6.3.2-8.9 1.7-1.5.9-3 2.6-2 5.2.7 1.9.3 4.2.4 6.5-2-.6-2.8-2.2-4-3.2-.8-.6-1.2-1.5-2.4-1.6-2-.2-12.9 4.8-13.6 6.7-.6 1.9-1.2 1.1-2.4.8-2-.5-3.8-1.5-6.1-1.5-4.9.2-5.4.5-5.7 5.9-3.3-2.2-6.2-6-10.6-2.6-.2.2 0 .3 0 .3zm64.3 36.2c-3.6 2.4-6.2 6.2-11.2 6.4-6.7.3-13.3 1.8-19.8 3.6-1.9.5-3.3.7-4.3-1.6-1.5-3.5 2.3-2.5 2.6-2.5 5.7.3 10.5-2.9 15.9-3.6 2.5-.3 3.5-2.9 6.5-3.2 3.3-.3 6.3.5 9.5.1.3.4.5.6.8.8zm95.2-271.8v-4c0-.8.7-2.1 1.1-1.5 1.8 3 7 1.4 7.7 5.4.6 3.2 1.4 6.7-1.2 9.5-1 1-.4 2.2-.6 3.3-.2 1.3-.4 2.8-2.2 1.9-.9-.5-2.7 1.3-3-1.7-.4-4.3-1.7-8.6-1.8-12.9zm-90.2 225.6c-1.6 3.4-5.1 3.8-7.4 5.9-.9.9-1.8.3-1.9-.4-.5-3.1-1-6.3-1-9.5 0-.6 1.4-.2 1.9.5 2.1 2.9 5.6 2.1 8.4 3.5zm-22.7 11.4c-.2-1.7-.1-3 1.9-2.8.8.1 1.7 0 2.5-.2 2.1-.6 4.8-3.4 6-.3.4 1.2-3 4.9-6.2 5.4-1.8.3-4.9 2-4.2-2.1z"/><path d="M210.3 562c.6-5.1 3.7 1.2 4.9-1.1 3.1 2.6 7.6 2.8 10.7 5.6-4.9 1.7-8.2-1.6-11.8-3.4-1.4-.7-2.6-1.3-4-1.3l.2.2zM189.8 29.7c3.6-1.9 8.1 1.4 11.4-2.4.2-.2 2.4 1.2 3.5 2 .9.6-.3 1-.5 1.5-.6 2.6-1.9.2-2.9.3-3.9.3-7.5-1.6-11.5-1.4zm-11.3-2.3c-.2-1.3-1.4-1.2-2.2-1.7-1.1-.7-.5-1.5-.2-2.4.4-1.3 1-1.5 2.1-.7 1.4 1.1 3.4-.2 4.7.8 1.2 1 2.8.2 4.1 1.4-3.4-.8-5.5 2.4-8.5 2.4-.1 0 0 .2 0 .2zm79.2 559.2c-2.6-.3-5.6 1.6-7.4-.8-1.6-2.1 2.2-4.7 4.3-2.7 1.1 1.1 1.6 2.7 3.1 3.5zm48.4-38.8c1.6-3.6 5.2-1.5 7.6-2.7 0 0 .4.5.4.8.1.9-.7 1.1-1.3 1-2.2-.3-4.1.6-5.9 1.7l-.8-.8zm-36-28.8c-1-.3-1.1-.9-.7-1.8l1.4.9c-.3.3-.5.6-.7.9zM72 90.1l.8.3c-.2.3-.4.6-.7.8-.1.1-.6-.1-.7-.2-.3-.5.2-.7.6-.9z"/><path d="M349.4 109.3l1.4.9" fill="#fefefe"/><path d="M267.4 286.1l-4 1.2c.3 1.4 1.6 1.5 2.5 2-.2 2-4.1 1.3-3.2 3.5 1 2.4 4 .3 6 2-6.8-2.5-10.1 3.7-15.2 5.5-2.5.9-1.8 4.5-4.7 5.8-4.7 2.2-9.4 5.3-14 7-5.6 2-11.3 5.5-18.3 3.1-3.9-1.3-4.2-3.8-3-5.7 2.1-3 4.5-6.4 9.1-6.5 3.2 0 4.5-3.4 6.8-5.1 3.2-2.3 5.7-5.6 9-7.6 3.4-2 7.8-2 11.2-4.3.4-.3 1.5-.2.9.8-1 1.7-.2 2.1 1.3 2 1.1-.1 2.5.7 3.1-.7 2.7-5.1 7.1-3.1 12.5-3zm-101.1-37.2c-6.9-2.4-11.8-7.1-15.1-13.5-1.4-2.8-4.3-4.8-5.2-9 2.3 1.3 3.7 2.4 4.3 4 1.2 3.1 5.1 3.4 6 6.9 1 3.8 5.4 5 7.8 8 .9 1.1 2.5 1.8 2 3.7.1.1.2-.1.2-.1zm-1.2-22.9c3.7-.7 4.7 3.2 7.5 4.4 4.9 2.2 9.2 5.7 13.7 8.7-4.2 0-8-1.5-10.9-4.2-3.4-3-9.1-3.5-10.3-8.9zm41.2 24.9c3.1.9 5.1 2.9 6 6-.2.3-.4.6-.7.8-2.2-1.9-4.6-3.7-6.2-6.2.3-.1.6-.3.9-.6zm-32.9 11.7c3.4 1.3 3.7 4.8 6.9 7.1-4.9-1.4-5.5-2.1-6.9-7.1zM114.2 298c3.5-1.2 5.7 2.6 9 2.1-.1.5.3 1.8-.5 1.5-2.9-1.2-6.3-1.1-8.5-3.6z"/><path d="M205.4 251.6c-1.2-1.7-4-1.5-4.6-4.4 2.7.2 4.6 1.1 5.5 3.8l-.9.6zm6.9 5.3c2.3-.1 2 1.7 2.6 3-1.9.1-2.4-1.3-3.3-2.2.2-.2.5-.5.7-.8zm-90.2 28.2c-.9.4-1.3.8-1.7.8-.8.1-1.2-.4-1.1-1.2 0-.4.5-1 .6-1l2.2 1.4zm124-28c-.9-.1-2 0-2.2-1.3 0-.2.2-.6.4-.7 1.3-.5 2 .5 2.7 1.3-.3.3-.6.5-.9.7zM83.2 285c1.5-.8 2.4-.1 3.2 1.1-1.1-.4-2.6.6-3.2-1.1zm36.3-34.4c-.4-.4-1.3-.6-.8-1.4.2-.4.7-.6 1.1-.9.2.6.4 1.1.5 1.7-.3.1-.6.4-.8.6zm51.9 9.3c.3.3.5.6.8.9-.2.2-.5.5-.6.5-.4-.2-.7-.5-1-.7.2-.2.4-.4.8-.7zm35.6-14.4l.9 1.3c-.8.4-1.5.3-1.7-.7.2-.2.5-.4.8-.6zm39.4 7.4c-.2 0-.6-.1-1-.2-.1-.1 0-.5 0-.8.4.1.8.1 1.2.2.5.1.5.4-.2.8z"/><path d="M247 256.5l.9 1.3c-.8.4-1.5.3-1.7-.7.2-.2.5-.4.8-.6zm73.9 62c-3 8-12.3 12.7-20.7 11.6-8.7-1.1-17.7-1.8-25.8 3.1-.4.2-1.1.7-1.2.7-3.2-4-7 1.6-10.5-.8-1.5-1-2.8 2.5-5.2 1.9-1.1-.3-2.6-.1-2.9-1.3-.3-1.3 1.1-1.5 2.2-2 13.5-6 27.2-10.9 42.4-9.9 4.6.3 9.1-.9 13.7-1.3 2.3-.1 4.6-2.7 8-2zm-73.8 23.9c-1.8 2-.4 3.9 0 5.9.7 3.1-2.8 4.2-3.9 6.6l-4.1 8.6c-.6 1.2-.6 3.4-2.1 3.3-2.1-.1-2.6-2.5-2.8-4.1-.7-6 4.6-17.8 9.3-21.6.7-.6 1.3-1.7 2.5-.8.6.6 1.3 1.1 1.1 2.1zm.9 48.9c-5.2-10.2-10.5-20.2-23.9-22.6 2.2-1.7 5.9-2.1 2.4-5.1-1.7-1.5.4-3.7.8-5.5s1.9-3.6 3.9-2.9c1.4.5 2 2.1 1.3 4.3-1.9 6 1.8 10.1 6.1 13.2 4 2.9 4.9 8.5 9.8 10.5-2.6 3-.3 2.7 1.7 2.6-.4.5 1 1.7-1.1 1.8-2.4.1.5 2.3-1 3.7zm-92.1-6.2c9-.5 16.1 2.4 22.8 8.9-8.6-1.7-16.5-2.6-22.8-8.9zm-25.3 14.8c-6.8 2.8-9.7 8.2-10.6 15.1-4.3-3.7-1.8-7.1-.1-10.3 2.2-4.1 5-7 10.7-4.8z"/></svg>